<?xml version="1.0" encoding="utf-8"?>
<!-- Generator: Adobe Illustrator 24.3.0, SVG Export Plug-In . SVG Version: 6.00 Build 0)  -->
<svg version="1.1" id="Kick" xmlns="http://www.w3.org/2000/svg" xmlns:xlink="http://www.w3.org/1999/xlink" x="0px" y="0px"
	 viewBox="0 0 87 87" style="enable-background:new 0 0 87 87;" xml:space="preserve">
<style type="text/css">
	.st0{fill:none;stroke:#FFFFFF;stroke-miterlimit:10;}
	.st1{fill:#FFFFFF;}
</style>
<path class="st0" d="M74.3,12.7c-17-17-44.5-17-61.5,0s-17,44.5,0,61.5c17,17,44.5,17,61.5,0C91.2,57.4,91.4,30,74.5,13
	C74.5,12.9,74.4,12.8,74.3,12.7z"/>
<path class="st1" d="M45.1,78.6V76c0-0.4-0.5-0.8-0.9-0.7c-0.4,0-0.7,0.3-0.7,0.7v2.6c0,0.4-0.4,0.8-0.9,0.7c-0.4,0-0.7-0.3-0.7-0.7
	V57.3h1.6v15c0,0.4,0.3,0.8,0.7,0.9c0.4,0,0.8-0.3,0.9-0.7c0-0.1,0-0.1,0-0.2v-1.8c7-0.6,13.5-3.9,18.1-9.2c0.8-0.9,1.6-2,2.3-3
	c5.2-7.8,6.1-17.6,2.4-26.2c-0.7-1.6-1.6-3.2-2.7-4.7L65,27.2c-1.2-1.7-2.7-3.3-4.3-4.7c-5-4.4-11.4-6.8-18.1-6.8l0,0
	c-2.4,0-4.8,0.3-7.2,0.9c-2.3,0.6-4.5,1.5-6.6,2.8c-2,1.2-3.9,2.7-5.6,4.3c-4.9,4.9-7.8,11.5-8,18.4c0,0.4,0,0.8,0,1.3
	c0,2.6,0.4,5.2,1.2,7.7v0.1c0.7,2.3,1.7,4.5,3,6.5c0.6,0.9,1.2,1.8,1.9,2.7c0.4,0.4,0.7,0.8,1.1,1.2s0.9,1,1.4,1.4
	c1.8,1.7,3.8,3.1,5.9,4.3c2.1,1.1,4.4,2,6.7,2.5c1.3,0.3,2.5,0.5,3.8,0.6v8.2c0,1.3,1.1,2.4,2.4,2.4c0.6,0,1.2-0.3,1.7-0.7
	C44.8,79.9,45.1,79.3,45.1,78.6z M45.4,55.7h-5.5c-0.7,0-1.3-0.6-1.3-1.3c0,0,0,0,0,0v-6.9c0-0.7,0.6-1.3,1.2-1.3c0,0,0,0,0,0h5.5
	c0.3,0,0.7,0.1,0.9,0.4c0.2,0.2,0.4,0.6,0.4,0.9v6.9c0,0.3-0.1,0.7-0.4,0.9C46.1,55.6,45.8,55.7,45.4,55.7z M48.3,47.5
	c0-1.6-1.3-2.9-2.9-2.9h-5.5c-1.6,0-2.9,1.3-2.9,2.8c0,0,0,0,0,0V48c-2.7-3.1-2.3-7.8,0.8-10.5s7.8-2.3,10.5,0.8
	c2.4,2.8,2.4,6.9,0,9.7L48.3,47.5z M45.1,68.9v-3.3c0.9-0.1,1.8-0.2,2.7-0.4l0.8,3.2C47.4,68.6,46.3,68.7,45.1,68.9z M59.8,62.4
	c-2.8,2.5-6.1,4.3-9.7,5.4l-0.8-3.2c1.2-0.4,2.3-0.8,3.4-1.4c1.5-0.8,3-1.7,4.3-2.8l1-0.9l2.3,2.3C60.4,62,59.9,62.4,59.8,62.4
	L59.8,62.4z M61.5,60.8l-2.3-2.3c2.3-2.5,4-5.5,5-8.8l3.2,0.8C66.2,54.4,64.2,57.9,61.5,60.8L61.5,60.8z M67.8,49l-3.2-0.9
	c0.8-3.3,0.8-6.8,0-10.1l3.2-0.8C68.7,41.1,68.7,45.1,67.8,49z M61.5,25.5c2.7,2.9,4.8,6.4,5.9,10.2l-3.2,0.9c-1-3.3-2.7-6.3-5-8.8
	L61.5,25.5z M52.9,19.5c0.9,0.4,1.8,0.8,2.7,1.3c1.7,1,3.3,2.2,4.8,3.6L58,26.7c0,0-0.3-0.3-0.3-0.3c-0.9-0.8-1.9-1.6-3-2.3
	c-0.6-0.4-1.2-0.7-1.8-1c-1.2-0.6-2.4-1.1-3.7-1.5l0.9-3.2C50.2,18.4,52.7,19.3,52.9,19.5L52.9,19.5z M25.1,24.3l0.5-0.4l0.1-0.1
	c2.8-2.5,6.1-4.3,9.6-5.4l0.8,3.2c-3.3,1-6.2,2.7-8.7,5.1L25.1,24.3C25,24.3,25.1,24.3,25.1,24.3z M23.9,25.5l2.3,2.3
	c-2.3,2.5-4,5.5-5,8.7L18,35.7C19.1,31.9,21.1,28.4,23.9,25.5z M17.5,49c-0.9-3.9-0.9-7.9,0-11.8l3.2,0.8c-0.8,3.3-0.8,6.8,0,10.1
	L17.5,49z M23.9,60.8c-2.7-2.9-4.8-6.4-5.9-10.2l3.2-0.8c1,3.3,2.7,6.3,5,8.8L23.9,60.8L23.9,60.8z M24.3,53.2
	c-4.4-8.1-3-18.2,3.6-24.8c0.9-0.9,1.8-1.6,2.8-2.4c3-2.1,6.5-3.4,10.1-3.7c0.4,0,0.8-0.4,0.7-0.9c0-0.4-0.4-0.8-0.9-0.7l0,0
	c-1,0.1-2,0.2-3,0.5L36.8,18c3.9-0.9,7.9-0.9,11.8,0l-0.8,3.2c-1-0.2-2.1-0.4-3.2-0.5c-0.4,0-0.8,0.3-0.9,0.7c0,0.4,0.3,0.8,0.7,0.9
	c3.6,0.3,7.1,1.6,10.1,3.6c0.4,0.3,0.9,0.6,1.3,1l0.5,0.5c1.4,1.2,2.5,2.5,3.6,4c0.9,1.3,1.6,2.6,2.1,4c1.1,2.7,1.6,5.7,1.5,8.7
	c-0.1,1.5-0.3,2.9-0.6,4.4c-0.7,2.9-2.1,5.6-4,8c-0.7,0.9-1.5,1.7-2.4,2.5c-1.3,1.2-2.8,2.2-4.3,3c-0.3,0.2-0.7,0.3-1,0.5
	c-2,0.9-4,1.4-6.1,1.7v-6.7h0.4c1.6,0,2.9-1.3,2.9-2.9v-4.3c0.2-0.2,0.5-0.4,0.7-0.7c3.5-3.5,3.5-9.3,0-12.8s-9.3-3.5-12.8,0
	c-3.5,3.5-3.5,9.3,0,12.8c0.2,0.2,0.5,0.5,0.7,0.7v4.2c0,1.6,1.3,2.9,2.9,2.9c0,0,0,0,0,0h0.4v6.6l-0.6-0.1c-3.6-0.5-7-2-9.8-4.2
	c-0.5-0.4-1-0.8-1.5-1.3C26.8,56.8,25.4,55,24.3,53.2L24.3,53.2z M31.5,66.5c-0.5-0.2-1.1-0.5-1.6-0.8c-1.6-0.9-3-1.9-4.4-3.1
	c-0.2-0.2-0.4-0.4-0.6-0.6l0.6-0.6l1.8-1.8l0.1,0.1c0.8,0.7,1.6,1.4,2.5,2c1.2,0.8,2.4,1.5,3.7,2.1c0.2,0.1,2.4,0.9,2.4,0.9
	l-0.8,3.2C35.2,68,31.8,66.6,31.5,66.5z M36.8,68.3l0.9-3.2c0.9,0.2,1.8,0.3,2.6,0.4v3.3C39.1,68.7,37.9,68.6,36.8,68.3z"/>
</svg>
