<?xml version="1.0" encoding="utf-8"?>
<!-- Generator: Adobe Illustrator 24.3.0, SVG Export Plug-In . SVG Version: 6.00 Build 0)  -->
<svg version="1.1" id="snareDrum" xmlns="http://www.w3.org/2000/svg" xmlns:xlink="http://www.w3.org/1999/xlink" x="0px" y="0px"
	 viewBox="0 0 87 87" style="enable-background:new 0 0 87 87;" xml:space="preserve">
<style type="text/css">
	.st0{fill:none;stroke:#FFFFFF;stroke-miterlimit:10;}
	.st1{fill-rule:evenodd;clip-rule:evenodd;fill:#FFFFFF;}
</style>
<path class="st0" d="M43.5,0C19.5,0,0,19.5,0,43.5S19.5,87,43.5,87S87,67.5,87,43.5l0,0C87.1,19.6,67.8,0.1,43.9,0
	C43.7,0,43.6,0,43.5,0z"/>
<path class="st1" d="M69.9,64.5L48.9,44.1l17.3-17.9c1.2-0.3,2.3-0.9,3.2-1.8c2.1-2.1,2.5-5.2,0.8-6.9c-0.9-0.9-2.2-1.2-3.4-1
	c-2.6,0.5-4.6,2.4-5.2,5l-18,17.4l-18-17.4c-0.6-2.6-2.6-4.5-5.2-5c-1.2-0.2-2.5,0.1-3.4,1c-1.7,1.7-1.4,4.8,0.8,6.9
	c0.9,0.9,2,1.5,3.2,1.8l17.3,17.9L17,64.5c-0.8,0.8-1.3,1.9-1.3,3c0,2.4,1.9,4.4,4.3,4.4c0,0,0,0,0.1,0l0,0c1.1,0,2.2-0.5,3-1.3
	l20.3-21l20.3,21c0.8,0.8,1.9,1.3,3,1.3l0,0c2.4,0.1,4.4-1.8,4.5-4.2c0,0,0-0.1,0-0.1C71.2,66.4,70.8,65.3,69.9,64.5L69.9,64.5z
	 M63.2,22.8c0.2-0.2,0.3-0.4,0.3-0.7c0.1-0.9,0.6-1.7,1.2-2.3c0.6-0.6,1.4-1,2.2-1.2c0.6-0.1,1.2,0,1.6,0.4c0.8,0.8,0.5,2.6-0.8,3.8
	c-0.6,0.6-1.4,1-2.3,1.1c-0.3,0-0.5,0.1-0.7,0.3L47.3,42.6l-2.2-2.2L63.2,22.8z M21.5,24c-0.9-0.1-1.7-0.5-2.3-1.2
	c-1.2-1.2-1.6-3-0.8-3.8c0.3-0.3,0.8-0.5,1.2-0.5H20c0.9,0.2,1.7,0.6,2.3,1.3c0.6,0.6,1.1,1.4,1.2,2.3c0,0.3,0.1,0.5,0.3,0.7
	l21.5,20.8l-2.3,2.3L22.1,24.4C22,24.2,21.7,24.1,21.5,24z M21.6,69.1c-0.4,0.4-0.9,0.6-1.5,0.6l0,0c-1.2,0-2.2-1-2.2-2.2
	c0,0,0,0,0,0c0-0.5,0.2-1.1,0.6-1.5l7.2-6.9l2.8,2.8L21.6,69.1z M68.4,69.1c-0.4,0.4-1,0.6-1.6,0.6l0,0c-0.6,0-1.1-0.2-1.5-0.6
	l-6.9-7.2l2.8-2.8l7.2,6.9c0.4,0.4,0.6,0.9,0.6,1.5C69.1,68.1,68.9,68.7,68.4,69.1L68.4,69.1z"/>
</svg>
