<?xml version="1.0" encoding="utf-8"?>
<!-- Generator: Adobe Illustrator 24.3.0, SVG Export Plug-In . SVG Version: 6.00 Build 0)  -->
<svg version="1.1" id="_2-hiHat" xmlns="http://www.w3.org/2000/svg" xmlns:xlink="http://www.w3.org/1999/xlink" x="0px" y="0px"
	 viewBox="0 0 87 87" style="enable-background:new 0 0 87 87;" xml:space="preserve">
<style type="text/css">
	.st0{fill:none;stroke:#FFFFFF;stroke-miterlimit:10;}
	.st1{fill:#FFFFFF;}
</style>
<path class="st0" d="M43.5,0C19.5,0,0,19.5,0,43.5S19.5,87,43.5,87S87,67.5,87,43.5l0,0C87.1,19.6,67.8,0.1,43.9,0
	C43.7,0,43.6,0,43.5,0z"/>
<g>
	<path class="st1" d="M69,25.8L69,25.8c0.6,0,1-0.4,1-0.9c0-0.4-0.2-0.8-0.6-1c-5.1-2.4-10.6-4.8-17-5c-1.1-2.4-3.1-4.3-5.7-5.2
		v-1.5c0-1.8-1.5-3.3-3.3-3.3s-3.3,1.5-3.3,3.3v1.5c-2.5,0.9-4.6,2.8-5.7,5.2c-6.4,0.2-12.1,2.6-17,5c-0.4,0.2-0.6,0.6-0.6,1.1
		c0.1,0.5,0.5,0.8,1,0.8h12c0.6,0,1-0.4,1-1s-0.4-1-1-1h-7.3c3.9-1.8,8.2-2.8,12.5-2.9c0.4,0,0.9-0.2,1-0.7c1.5-4,5.9-6.1,10-4.7
		c2.2,0.8,3.9,2.5,4.7,4.7c0.1,0.4,0.6,0.7,1,0.7c4.3,0.1,8.6,1.1,12.6,2.9H34.9l0,0c-0.6,0-1,0.4-1,1s0.4,1,1,1h7.7v2H18
		c-0.6,0-1,0.4-1.1,0.9c0,0.4,0.2,0.9,0.6,1c5.1,2.4,10.6,4.8,17,5c1.1,2.4,3.2,4.3,5.7,5.2v18.7c-1.7,1.1-2.7,3-2.7,5
		c0,0.8,0.2,1.6,0.5,2.4l-7.8,10.5c-0.3,0.4-0.3,1.1,0.2,1.4c0,0,0,0,0,0c0.2,0.1,0.4,0.2,0.6,0.2c0.3,0,0.6-0.1,0.8-0.4l7.4-9.9
		c0.9,0.9,2,1.5,3.2,1.7v7.6c0,0.6,0.4,1,1,1s1-0.4,1-1v-7.6c1.2-0.2,2.3-0.8,3.2-1.7l7.4,9.9c0.2,0.3,0.5,0.4,0.8,0.4
		c0.6,0,1-0.4,1-1c0-0.2-0.1-0.5-0.2-0.6L49,66c1.2-2.7,0.3-5.8-2.2-7.4v-4c0-0.6-0.4-1-1-1s-1,0.4-1,1v3.2
		c-0.4-0.1-0.8-0.1-1.2-0.1c-0.4,0-0.9,0-1.3,0.1V40.4c0.4,0.1,0.9,0.1,1.3,0.1c0.4,0,0.8,0,1.2-0.1v9.4c0,0.6,0.4,1,1,1s1-0.4,1-1
		v-9.9c2.5-0.9,4.6-2.8,5.7-5.2c6.4-0.2,12.1-2.6,17-5c0.5-0.2,0.8-0.8,0.6-1.3c-0.2-0.4-0.6-0.7-1-0.6H44.5v-2L69,25.8z M42.2,13.2
		v-1c0-0.7,0.6-1.3,1.3-1.3c0.7,0,1.3,0.6,1.3,1.3v1c-0.4-0.1-0.8-0.1-1.3-0.1C43.1,13.1,42.7,13.1,42.2,13.2z M47.5,63.6
		c0,2.2-1.8,4-3.9,4s-4-1.8-4-3.9s1.8-4,3.9-4c0,0,0,0,0,0C45.7,59.7,47.5,61.4,47.5,63.6z M51.8,32.7c-0.4,0-0.9,0.2-1,0.7
		c-1.5,4-5.9,6.1-10,4.7c-2.2-0.8-3.9-2.5-4.7-4.7c-0.1-0.4-0.6-0.7-1-0.7c-4.3-0.1-8.6-1.1-12.6-2.9h41.6
		C60.3,31.6,56.1,32.5,51.8,32.7z"/>
	<path class="st1" d="M71.7,19.5c-4-2.1-8.3-3.6-12.6-4.7c-0.6-0.1-1.1,0.2-1.2,0.8s0.2,1.1,0.8,1.2l0,0c4.2,1,8.3,2.6,12.2,4.5
		c0.1,0.1,0.3,0.1,0.4,0.1c0.4,0,0.8-0.2,0.9-0.6C72.4,20.4,72.2,19.8,71.7,19.5C71.7,19.5,71.7,19.5,71.7,19.5z"/>
	<path class="st1" d="M32.1,39.6c0.6,0,1-0.4,1-1s-0.4-1-1-1c-6.1-0.6-11.3-2.9-16-5.1c-0.5-0.2-1.1,0-1.4,0.5s0,1.1,0.5,1.4
		C20.3,36.6,25.6,39,32.1,39.6L32.1,39.6z"/>
</g>
</svg>
