<?xml version="1.0" encoding="utf-8"?>
<!-- Generator: Adobe Illustrator 24.3.0, SVG Export Plug-In . SVG Version: 6.00 Build 0)  -->
<svg version="1.1" id="_9electroTones" xmlns="http://www.w3.org/2000/svg" xmlns:xlink="http://www.w3.org/1999/xlink" x="0px"
	 y="0px" viewBox="0 0 87 87" style="enable-background:new 0 0 87 87;" xml:space="preserve">
<style type="text/css">
	.st0{fill:none;stroke:#FFFFFF;stroke-miterlimit:10;}
	.st1{fill:#FFFFFF;}
</style>
<path class="st0" d="M43.5,0C19.5,0,0,19.5,0,43.5S19.5,87,43.5,87S87,67.5,87,43.5l0,0C87.1,19.6,67.8,0.1,43.9,0
	C43.7,0,43.6,0,43.5,0z"/>
<g>
	<path class="st1" d="M70.8,32.9h-1.4v-0.6c0-1.7-1.4-3.1-3.1-3.1h-3.7c-0.4,0-0.7,0.1-1.1,0.2v-1.7c-0.6-9.9-9.1-17.5-19-16.9
		c-9.1,0.5-16.4,7.8-16.9,16.9v1.7c-0.3-0.1-0.7-0.2-1.1-0.2h-3.7c-1.7,0-3.1,1.4-3.1,3.1l0,0v0.6h-1.4c-3.6,0-6.5,2.9-6.5,6.5l0,0
		v7.8c0,3.8,3.1,6.9,6.9,6.9h1v0.6c0,1.7,1.4,3.1,3.1,3.1h0.9c0.3,3.3,2.2,6.3,5.1,8c2.7,6.9,9.3,11.4,16.7,11.4
		c2.8,0,5.6-0.7,8.1-1.9c0.4-0.3,0.6-0.8,0.4-1.2c-0.3-0.5-0.8-0.7-1.3-0.4c-7.7,3.9-17.1,1-21.2-6.6c0.9,0.2,1.7,0.3,2.6,0.3h5
		c0.4,1.6,1.9,2.6,3.5,2.6h5.8c2-0.1,3.5-1.8,3.4-3.8c-0.1-1.9-1.6-3.3-3.4-3.4h-5.8c-1.6,0-3,1.1-3.5,2.6h-5
		c-1.3,0-2.6-0.3-3.7-0.8c-0.6-1.7-0.9-3.4-0.9-5.1V38c0-8.8,7.2-16,16.1-15.9c3.1,0,6,0.9,8.6,2.6c0.5,0.3,1.1,0.2,1.4-0.3
		c0.3-0.5,0.2-1.1-0.3-1.4C45,17.6,33.9,20,28.5,28.2c-0.4,0.5-0.7,1.1-1,1.7v-2.2c0-8.8,7.2-16,16-16s16,7.2,16,16v2.2
		c-0.8-1.5-1.7-2.9-2.9-4.1c-0.3-0.5-0.9-0.6-1.4-0.2c-0.5,0.3-0.6,0.9-0.2,1.4c0.1,0.1,0.1,0.1,0.2,0.2c2.7,2.9,4.3,6.8,4.2,10.8
		v21.3c0,4.6-2,9-5.4,12c-0.4,0.4-0.4,1,0,1.4c0.2,0.2,0.4,0.3,0.6,0.3c0.2,0,0.5-0.1,0.7-0.2c3.9-3.4,6.1-8.3,6.1-13.5v-1.7
		c0.4,0.1,0.7,0.2,1.1,0.2h3.7c1.7,0,3.1-1.4,3.1-3.1v-0.6h1c3.8,0,6.9-3.1,6.9-6.9v-7.8C77.2,35.8,74.3,32.9,70.8,32.9L70.8,32.9z
		 M18.3,37.9h1.6c0.6,0,1.1,0.5,1.1,1.1c0,0.6-0.5,1.1-1.1,1.1h-1.6c-0.6,0-1.1-0.5-1.1-1.1C17.2,38.4,17.7,37.9,18.3,37.9z
		 M17.7,52.1h-1c-2.7,0-4.9-2.2-4.9-4.9v-7.8c0-2.5,2-4.5,4.5-4.5c0,0,0,0,0,0h1.4V36c-1.7,0.4-2.7,2.1-2.2,3.8
		c0.3,1.1,1.1,1.9,2.2,2.2v2c-1.7,0.4-2.7,2-2.4,3.7c0.3,1.2,1.2,2.1,2.4,2.4L17.7,52.1z M18.3,48.1c-0.6,0-1.1-0.5-1.1-1.1
		c0-0.6,0.5-1.1,1.1-1.1h1.6c0.6,0,1.1,0.5,1.1,1.1c0,0.6-0.5,1.1-1.1,1.1H18.3z M22.6,55.7h-0.2h-1.6c-0.6,0-1.1-0.5-1.1-1.1v-4.5
		h0.3c1.7,0,3.1-1.4,3.1-3.1c0-1.7-1.4-3.1-3.1-3.1h-0.3v-1.8h0.3c1.7,0,3.1-1.4,3.1-3.1c0-1.7-1.4-3.1-3.1-3.1h-0.3v-3.7
		c0-0.6,0.5-1.1,1.1-1.1h3.7c0.6,0,1.1,0.5,1.1,1.1v22.4c0,0.6-0.5,1.1-1.1,1.1h-1.6L22.6,55.7L22.6,55.7z M23.7,57.7h0.8
		c0.4,0,0.8-0.1,1.1-0.2v1.8c0,1.1,0.1,2.2,0.3,3.3C24.6,61.3,23.9,59.6,23.7,57.7L23.7,57.7z M40.6,64.6h5.8
		c0.9-0.1,1.7,0.6,1.8,1.5s-0.6,1.7-1.5,1.8c-0.1,0-0.2,0-0.3,0h-5.8c-0.9,0.1-1.7-0.6-1.8-1.5s0.6-1.7,1.5-1.8
		C40.4,64.6,40.5,64.6,40.6,64.6z M68.7,37.9c0.6,0,1.1,0.5,1.1,1.1c0,0.6-0.5,1.1-1.1,1.1h-1.6c-0.6,0-1.1-0.5-1.1-1.1
		c0-0.6,0.5-1.1,1.1-1.1H68.7z M67.4,54.7c0,0.6-0.5,1.1-1.1,1.1h-3.7c-0.6,0-1.1-0.5-1.1-1.1V32.3c0-0.6,0.5-1.1,1.1-1.1h3.7
		c0.6,0,1.1,0.5,1.1,1.1V36h-0.3c-1.7,0-3.1,1.4-3.1,3.1c0,1.7,1.4,3.1,3.1,3.1l0,0h0.3V44h-0.3c-1.7,0-3.1,1.4-3.1,3.1
		c0,1.7,1.4,3.1,3.1,3.1l0,0h0.3L67.4,54.7z M68.7,48.2h-1.6c-0.6,0-1.1-0.5-1.1-1.1c0-0.6,0.5-1.1,1.1-1.1h1.6
		c0.6,0,1.1,0.5,1.1,1.1C69.8,47.7,69.3,48.2,68.7,48.2z M75.3,47.2c0,2.7-2.2,4.9-4.9,4.9l0,0h-1v-2c1.7-0.4,2.7-2,2.4-3.7
		c-0.3-1.2-1.2-2.1-2.4-2.4v-2c1.7-0.4,2.7-2.1,2.2-3.8c-0.3-1.1-1.1-1.9-2.2-2.2v-1.2h1.4c2.5,0,4.5,2,4.5,4.5L75.3,47.2z"/>
	<path class="st1" d="M52.2,48.2H40.4c-0.6,0-1,0.4-1,1s0.4,1,1,1h11.8c3.1,0,5.5-2.5,5.5-5.5c0-3.1-2.5-5.5-5.5-5.5H34.6
		c-3.1,0-5.5,2.5-5.5,5.5s2.5,5.5,5.5,5.5h1.5c0.6,0,1-0.4,1-1s-0.4-1-1-1h-1.5c-2,0-3.6-1.6-3.6-3.6c0-2,1.6-3.6,3.6-3.6h17.7
		c2,0,3.6,1.6,3.6,3.6S54.2,48.2,52.2,48.2C52.2,48.2,52.2,48.2,52.2,48.2z"/>
</g>
</svg>
