<?xml version="1.0" encoding="utf-8"?>
<!-- Generator: Adobe Illustrator 24.3.0, SVG Export Plug-In . SVG Version: 6.00 Build 0)  -->
<svg version="1.1" id="crashCymbals" xmlns="http://www.w3.org/2000/svg" xmlns:xlink="http://www.w3.org/1999/xlink" x="0px"
	 y="0px" viewBox="0 0 87 87" style="enable-background:new 0 0 87 87;" xml:space="preserve">
<style type="text/css">
	.st0{fill:none;stroke:#FFFFFF;stroke-miterlimit:10;}
	.st1{fill:#FFFFFF;}
</style>
<path class="st0" d="M43.5,0C19.5,0,0,19.5,0,43.5S19.5,87,43.5,87C67.5,87,87,67.5,87,43.5C87.1,19.6,67.8,0.1,43.9,0
	C43.7,0,43.6,0,43.5,0z"/>
<g>
	<path class="st1" d="M53.1,16.3c-0.6-0.1-1.1,0.4-1.2,1c0,0,0,0,0,0c-0.1,0.6,0.4,1.1,1,1.2c0,0,0,0,0,0
		c13.8,1.8,23.6,14.4,21.8,28.3c-1.6,12.5-12.1,21.8-24.7,22c-0.7,0-1.4,0-2.1-0.1C61.7,62.6,68.1,46.4,62,32.6S39.8,12.4,25.9,18.5
		S5.7,40.7,11.8,54.5C16.2,64.5,26.1,71,37,70.9c2.2,0,4.4-0.3,6.5-0.8c2.1,0.5,4.3,0.8,6.5,0.8c15.1,0,27.4-12.2,27.5-27.3
		C77.5,29.6,67,17.9,53.1,16.3L53.1,16.3z M37,68.7c-13.9,0-25.2-11.3-25.2-25.2c0-13.9,11.3-25.2,25.2-25.2s25.2,11.3,25.2,25.2
		c0,0,0,0,0,0C62.2,57.4,50.9,68.7,37,68.7z"/>
	<path class="st1" d="M37,33.4c-5.6,0-10.1,4.5-10.1,10.1c0,3.7,2.1,7.1,5.4,8.9c-0.4,1.4-0.6,2.9-0.7,4.4c0,3,2.4,5.4,5.4,5.4
		c3,0,5.4-2.4,5.4-5.4c-0.1-1.8-0.4-3.6-0.9-5.3l0,0c-0.9-2.9-2.1-5.8-3.5-8.5c-0.2-0.4-0.6-0.6-1-0.6c-0.4,0-0.8,0.2-1,0.6
		c-1.2,2.4-2.3,4.8-3.1,7.3c-3.8-2.2-5-7.1-2.7-10.9c2.2-3.8,7.1-5,10.9-2.7c2.4,1.4,3.9,4,3.9,6.8c0,1.8-0.6,3.5-1.7,4.9
		c-0.4,0.5-0.3,1.1,0.2,1.5s1.1,0.3,1.5-0.2c1.4-1.8,2.2-4,2.2-6.2C47.1,37.9,42.6,33.4,37,33.4z M37,46c0.8,1.7,1.5,3.4,2.1,5.2
		c-1.4,0.4-2.8,0.4-4.2,0C35.5,49.4,36.2,47.6,37,46L37,46z M34.3,53.2c0.9,0.2,1.8,0.4,2.7,0.4c0.9,0,1.8-0.1,2.7-0.4
		c0.3,1.2,0.5,2.4,0.5,3.6c0.1,1.8-1.3,3.3-3.1,3.4s-3.3-1.3-3.4-3.1c0-0.1,0-0.2,0-0.4C33.8,55.6,34,54.4,34.3,53.2z"/>
</g>
</svg>
