<?xml version="1.0" encoding="utf-8"?>
<!-- Generator: Adobe Illustrator 24.3.0, SVG Export Plug-In . SVG Version: 6.00 Build 0)  -->
<svg version="1.1" id="_10-bongos" xmlns="http://www.w3.org/2000/svg" xmlns:xlink="http://www.w3.org/1999/xlink" x="0px" y="0px"
	 viewBox="0 0 87 87" style="enable-background:new 0 0 87 87;" xml:space="preserve">
<style type="text/css">
	.st0{fill:none;stroke:#FFFFFF;stroke-miterlimit:10;}
	.st1{fill:#FFFFFF;}
</style>
<path class="st0" d="M43.5,0C19.5,0,0,19.5,0,43.5S19.5,87,43.5,87S87,67.5,87,43.5S67.5,0,43.5,0z"/>
<path class="st1" d="M76.9,32.5h-0.5v-0.9c0-2.1-1.7-3.8-3.8-3.8H50.8c-2.1,0-3.8,1.7-3.8,3.8l0,0v0.9h-0.5c-0.9,0-1.6,0.7-1.6,1.6
	v2.1c0,0.9,0.7,1.6,1.6,1.6h0.3c-0.2,1.5-0.4,3-0.4,4.5h-5.9c0-1.5-0.2-3-0.4-4.5h0.3c0.9,0,1.6-0.7,1.6-1.6v0v-2.1
	c0-0.9-0.7-1.6-1.6-1.6c0,0,0,0,0,0H40v-0.9c0-2.1-1.7-3.8-3.8-3.8c0,0,0,0,0,0H26c-0.6,0-1,0.4-1,1s0.4,1,1,1h10.2
	c0.9,0,1.7,0.8,1.7,1.7v0v0.9H12.6v-0.9c0-0.9,0.8-1.7,1.7-1.7h7.6c0.6,0,1-0.4,1-1s-0.4-1-1-1h-7.6c-2.1,0-3.8,1.7-3.8,3.8l0,0v0.9
	h-0.5c-0.9,0-1.6,0.7-1.6,1.6c0,0,0,0,0,0v2.1c0,0.9,0.7,1.6,1.6,1.6c0,0,0,0,0,0h0.3c-1,6.4-0.3,12.9,2.1,18.9l0.4,1
	c0.3,0.9,1.2,1.5,2.2,1.5h20.4c0.9,0,1.8-0.6,2.1-1.5l0.4-1c0.6-1.4,1-2.9,1.4-4.4h8.1c0.4,1.5,0.9,3,1.4,4.4l0.4,1
	c0.3,0.9,1.2,1.5,2.2,1.5H72c0.9,0,1.8-0.6,2.1-1.5l0.4-1c2.4-6,3.1-12.5,2.1-18.9h0.3c0.9,0,1.6-0.7,1.6-1.6v0v-2.1
	C78.5,33.2,77.8,32.5,76.9,32.5C76.9,32.5,76.9,32.5,76.9,32.5z M47,34.5h10.9c0.6,0,1-0.4,1-1s-0.4-1-1-1h-8.8v-0.9
	c0-0.9,0.8-1.7,1.7-1.7h21.8c0.9,0,1.7,0.8,1.7,1.7v0.9H62.1c-0.6,0-1,0.4-1,1s0.4,1,1,1h14.4v1.2H47L47,34.5z M66.3,57.1h-8.4
	l-1.4-3.6c-1.3-3.3-1.9-6.7-1.9-10.2v-0.9c0.5-0.3,0.9-0.7,1.1-1.3l1.2-3.3h10.3l1.2,3.3c0.2,0.6,0.6,1,1.1,1.3v0.9
	c0,3.5-0.6,6.9-1.9,10.2L66.3,57.1z M53.8,40.4c0,0.1-0.1,0.1-0.2,0.1c-0.1,0-0.2,0-0.2-0.1l-0.9-2.6h2.3L53.8,40.4z M70.8,40.4
	c0,0.1-0.2,0.1-0.2,0.1c-0.1,0-0.2,0-0.2-0.1l-0.9-2.6h2.3L70.8,40.4z M10.6,34.6H40v1.2H10.6V34.6z M29.8,57.1h-8.4L20,53.5
	c-1.3-3.3-1.9-6.7-1.9-10.2v-0.9c0.5-0.3,0.9-0.7,1.1-1.3l1.2-3.3h10.3l1.2,3.3c0.2,0.6,0.6,1,1.1,1.3v0.9c0,3.5-0.7,6.9-1.9,10.2
	L29.8,57.1z M17.3,40.4c0,0.1-0.1,0.1-0.2,0.1c-0.1,0-0.2,0-0.2-0.1l-0.9-2.6h2.3L17.3,40.4z M34.3,40.4c0,0.1-0.2,0.1-0.2,0.1
	c-0.1,0-0.2,0-0.2-0.1l-0.9-2.6h2.3L34.3,40.4z M14.8,56.9l-0.4-1c-2.3-5.8-2.9-12-1.9-18.2h1.2l1.2,3.3c0.2,0.6,0.6,1,1.1,1.3v0.9
	c0,3.7,0.7,7.4,2,10.9l1.1,2.9h-4.1C14.9,57.1,14.9,57,14.8,56.9z M36.1,55.9l-0.4,1c0,0.1-0.1,0.2-0.2,0.2H32l1.1-2.9
	c1.3-3.5,2-7.2,2-10.9v-0.9c0.5-0.3,0.9-0.7,1.1-1.3l1.2-3.3H38C39,43.9,38.4,50.2,36.1,55.9L36.1,55.9z M39.9,50.2
	c0.4-1.9,0.6-3.9,0.7-5.9h5.9c0.1,2,0.3,3.9,0.6,5.9H39.9z M51.3,56.9l-0.4-1c-2.3-5.8-2.9-12-1.9-18.2h1.2l1.2,3.3
	c0.2,0.6,0.6,1,1.1,1.3v0.9c0,3.7,0.7,7.4,2,10.9l1.1,2.9h-4.1C51.4,57.1,51.3,57,51.3,56.9z M72.6,55.9l-0.4,1
	c0,0.1-0.1,0.2-0.2,0.2h-3.5l1.1-2.9c1.3-3.5,2-7.2,2-10.9v-0.9c0.5-0.3,0.9-0.7,1.1-1.3l1.2-3.3h0.6C75.5,43.9,74.8,50.2,72.6,55.9
	L72.6,55.9z"/>
</svg>
