<?xml version="1.0" encoding="utf-8"?>
<!-- Generator: Adobe Illustrator 24.3.0, SVG Export Plug-In . SVG Version: 6.00 Build 0)  -->
<svg version="1.1" id="_7-synthBass" xmlns="http://www.w3.org/2000/svg" xmlns:xlink="http://www.w3.org/1999/xlink" x="0px"
	 y="0px" viewBox="0 0 87 87" style="enable-background:new 0 0 87 87;" xml:space="preserve">
<style type="text/css">
	.st0{fill:none;stroke:#FFFFFF;stroke-miterlimit:10;}
	.st1{fill-rule:evenodd;clip-rule:evenodd;fill:#FFFFFF;}
	.st2{fill:#FFFFFF;}
</style>
<path class="st0" d="M43.5,0C19.5,0,0,19.5,0,43.5S19.5,87,43.5,87S87,67.5,87,43.5l0,0C87.1,19.6,67.8,0.1,43.9,0
	C43.7,0,43.6,0,43.5,0z"/>
<g>
	<path class="st1" d="M72.4,17.9H14.6c-2.1,0-3.8,1.7-3.8,3.8l0,0v43.5c0,2.1,1.7,3.8,3.8,3.8h57.8c2.1,0,3.8-1.7,3.8-3.8l0,0V21.8
		C76.2,19.6,74.5,17.9,72.4,17.9z M14.6,20.5h57.8c0.7,0,1.3,0.6,1.3,1.3v14.1H13.3V21.8C13.3,21.1,13.9,20.5,14.6,20.5
		C14.6,20.5,14.6,20.5,14.6,20.5z M24.3,38.4v14.1c0,0.7,0.6,1.3,1.3,1.3h1.3v12.8h-7.6V38.4H24.3z M29.4,53.7h1.3
		c0.7,0,1.3-0.6,1.3-1.3V38.4h2.6v14.1c0,0.7,0.6,1.3,1.3,1.3h1.3v12.8h-7.7L29.4,53.7z M39.7,53.7h1.3c0.7,0,1.3-0.6,1.3-1.3
		c0,0,0,0,0,0V38.4h5.1v28.1h-7.7L39.7,53.7z M49.9,38.4H55v14.1c0,0.7,0.6,1.3,1.3,1.3h1.3v12.8h-7.7V38.4z M60.1,53.7h1.3
		c0.7,0,1.3-0.6,1.3-1.3V38.4h5.1v28.1h-7.7V53.7z M13.3,65.2V38.4h3.3v28.1h-2C13.9,66.5,13.3,66,13.3,65.2
		C13.3,65.3,13.3,65.3,13.3,65.2z M73.7,65.2c0,0.7-0.6,1.3-1.3,1.3h-2V38.4h3.3L73.7,65.2z"/>
	<circle class="st2" cx="21.1" cy="28.2" r="3.2"/>
	<circle class="st2" cx="65.9" cy="28.1" r="3.2"/>
	<path class="st1" d="M29.4,26.9c0.7,0,1.3-0.6,1.3-1.3c0-0.7-0.6-1.3-1.3-1.3l0,0c-0.7,0-1.3,0.6-1.3,1.3
		C28.2,26.3,28.7,26.9,29.4,26.9z"/>
	<path class="st1" d="M29.4,32c0.7,0,1.3-0.6,1.3-1.3c0-0.7-0.6-1.3-1.3-1.3l0,0c-0.7,0-1.3,0.6-1.3,1.3C28.2,31.4,28.7,32,29.4,32z
		"/>
	<path class="st1" d="M34.6,26.9c0.7,0,1.3-0.6,1.3-1.3s-0.6-1.3-1.3-1.3c0,0,0,0,0,0l0,0c-0.7,0-1.3,0.6-1.3,1.3
		C33.3,26.3,33.8,26.9,34.6,26.9z"/>
	<path class="st1" d="M34.6,32c0.7,0,1.3-0.6,1.3-1.3s-0.6-1.3-1.3-1.3c0,0,0,0,0,0l0,0c-0.7,0-1.3,0.6-1.3,1.3
		C33.3,31.4,33.8,32,34.6,32z"/>
	<path class="st1" d="M39.7,26.9c0.7,0,1.3-0.6,1.3-1.3s-0.6-1.3-1.3-1.3c0,0,0,0,0,0l0,0c-0.7,0-1.3,0.6-1.3,1.3
		C38.4,26.3,39,26.9,39.7,26.9z"/>
	<path class="st1" d="M39.7,32c0.7,0,1.3-0.6,1.3-1.3c0-0.7-0.6-1.3-1.3-1.3l0,0c-0.7,0-1.3,0.6-1.3,1.3C38.4,31.4,39,32,39.7,32z"
		/>
	<path class="st1" d="M44.8,26.9c0.7,0,1.3-0.6,1.3-1.3s-0.6-1.3-1.3-1.3c0,0,0,0,0,0l0,0c-0.7,0-1.3,0.6-1.3,1.3
		S44.1,26.9,44.8,26.9C44.8,26.9,44.8,26.9,44.8,26.9z"/>
	<path class="st1" d="M44.8,32c0.7,0,1.3-0.6,1.3-1.3c0-0.7-0.6-1.3-1.3-1.3l0,0c-0.7,0-1.3,0.6-1.3,1.3C43.5,31.4,44.1,32,44.8,32z
		"/>
	<circle class="st2" cx="53.1" cy="28.1" r="3.2"/>
</g>
</svg>
