<?xml version="1.0" encoding="utf-8"?>
<!-- Generator: Adobe Illustrator 24.3.0, SVG Export Plug-In . SVG Version: 6.00 Build 0)  -->
<svg version="1.1" id="_5-waveDrum" xmlns="http://www.w3.org/2000/svg" xmlns:xlink="http://www.w3.org/1999/xlink" x="0px"
	 y="0px" viewBox="0 0 87 87" style="enable-background:new 0 0 87 87;" xml:space="preserve">
<style type="text/css">
	.st0{fill:none;stroke:#FFFFFF;stroke-miterlimit:10;}
	.st1{fill:#FFFFFF;}
</style>
<path class="st0" d="M43.5,0C19.5,0,0,19.5,0,43.5S19.5,87,43.5,87S87,67.5,87,43.5l0,0C87.1,19.6,67.8,0.1,43.9,0
	C43.7,0,43.6,0,43.5,0z"/>
<path class="st1" d="M61.6,9H25.4c-1.9,0-3.4,1.5-3.4,3.4v2.3c-0.1,7.3,1.1,14.6,3.5,21.6c2.1,6,5.1,10.9,8.6,14l-2.7,16l0,0
	L30,74.1c-0.1,0.4,0.1,0.9,0.5,1.1c0.2,0.1,4.8,2.8,13,2.8s12.8-2.7,13-2.8c0.4-0.2,0.6-0.7,0.5-1.1l-1.3-7.8l0,0L53,50.3
	c3.5-3.1,6.5-7.9,8.6-14c2.3-6.9,3.5-14.2,3.5-21.6v-2.3C65,10.5,63.5,9,61.6,9z M54.6,73.7c-3.5,1.5-7.3,2.2-11.1,2.1
	c-3.8,0.1-7.6-0.6-11.2-2.1l0.9-5.5l4.2,2.2c0.3,0.2,0.7,0.2,1,0l5-2.7l5,2.7c0.3,0.1,0.7,0.1,1,0l4.2-2.2L54.6,73.7z M25.4,11.2
	h36.3c0.7,0,1.2,0.5,1.2,1.2v1.2H24.2v-1.2C24.2,11.7,24.7,11.2,25.4,11.2L25.4,11.2z M35.6,15.8c0.1,13.8,1.5,26.3,3.6,32.9h-3.5
	C28.8,42.8,24.4,30,24.2,15.8H35.6z M49,68.2l-5-2.7c-0.3-0.2-0.7-0.2-1,0l-5,2.7l-4.3-2.3l2.5-15h14.6l2.5,15L49,68.2z M51.4,48.7
	h-3.5c1.4-5,2.3-10.1,2.7-15.3c0-0.6-0.5-1.1-1.1-1.1c-0.5,0-1,0.4-1.1,0.9c-0.7,6.7-1.7,12.2-2.9,15.5h-4
	c-2.2-6.2-3.7-18.9-3.7-32.9h11.5c0,4.5-0.2,8.9-0.5,13c0,0.6,0.4,1.1,1,1.2h0.1c0.6,0,1-0.4,1.1-1c0.3-4.2,0.5-8.6,0.5-13.2h11.4
	C62.6,30,58.2,42.8,51.4,48.7z"/>
</svg>
