<?xml version="1.0" encoding="utf-8"?>
<!-- Generator: Adobe Illustrator 24.3.0, SVG Export Plug-In . SVG Version: 6.00 Build 0)  -->
<svg version="1.1" id="_6-vinyl" xmlns="http://www.w3.org/2000/svg" xmlns:xlink="http://www.w3.org/1999/xlink" x="0px" y="0px"
	 viewBox="0 0 87 87" style="enable-background:new 0 0 87 87;" xml:space="preserve">
<style type="text/css">
	.st0{fill:none;stroke:#FFFFFF;stroke-miterlimit:10;}
	.st1{fill:#FFFFFF;}
</style>
<path class="st0" d="M43.5,0C19.5,0,0,19.5,0,43.5S19.5,87,43.5,87S87,67.5,87,43.5l0,0C87.1,19.6,67.8,0.1,43.9,0
	C43.7,0,43.6,0,43.5,0z"/>
<g>
	<path class="st1" d="M72.3,18H14.7c-2.1,0-3.8,1.7-3.8,3.8v43.3c0,2.1,1.7,3.8,3.8,3.8h57.7c2.1,0,3.8-1.7,3.8-3.8V21.8
		C76.1,19.7,74.4,18,72.3,18z M73.6,65.2c0,0.7-0.6,1.3-1.3,1.3c0,0,0,0,0,0H14.7c-0.7,0-1.3-0.6-1.3-1.3c0,0,0,0,0,0V21.8
		c0-0.7,0.6-1.3,1.3-1.3h57.7c0.7,0,1.3,0.6,1.3,1.3V65.2z"/>
	<path class="st1" d="M36.4,23.1c-11.3,0-20.4,9.1-20.4,20.4s9.1,20.4,20.4,20.4s20.4-9.1,20.4-20.4c0,0,0,0,0,0
		C56.8,32.2,47.6,23.1,36.4,23.1z M36.4,61.4c-9.9,0-17.8-8-17.8-17.9c0-9.9,8-17.8,17.9-17.8c9.9,0,17.8,8,17.8,17.9
		C54.2,53.4,46.2,61.4,36.4,61.4z"/>
	<path class="st1" d="M36.4,56.3c-0.7,0.1-1.2,0.7-1.2,1.4c0.1,0.6,0.5,1.1,1.2,1.2c8.5,0,15.3-6.9,15.3-15.3c0-0.7-0.6-1.3-1.3-1.3
		c-0.7,0-1.3,0.6-1.3,1.3C49.1,50.5,43.4,56.3,36.4,56.3z"/>
	<path class="st1" d="M64.7,23.1c-3.5,0-6.4,2.9-6.4,6.4c0,3,2.1,5.6,5.1,6.2v18.5l-5,5c-0.5,0.5-0.5,1.3,0,1.8
		c0.2,0.2,0.6,0.4,0.9,0.4c0.3,0,0.7-0.1,0.9-0.3l5.4-5.4c0.2-0.2,0.4-0.6,0.4-0.9v-19c3.5-0.7,5.7-4.1,5-7.5
		C70.3,25.3,67.7,23.1,64.7,23.1L64.7,23.1z M66,33.1v-3.6c0-0.7-0.6-1.3-1.3-1.3c-0.7,0-1.3,0.6-1.3,1.3v3.6c-2-0.7-3-2.9-2.3-4.9
		s2.9-3,4.9-2.3c2,0.7,3,2.9,2.3,4.9C67.9,31.8,67,32.7,66,33.1z"/>
	<path class="st1" d="M45.3,43.5c0-4.9-4-8.9-8.9-8.9s-8.9,4-8.9,8.9s4,8.9,8.9,8.9c0,0,0,0,0,0C41.3,52.4,45.3,48.4,45.3,43.5
		C45.3,43.5,45.3,43.5,45.3,43.5z M32.5,43.5c0-2.1,1.7-3.8,3.8-3.8c2.1,0,3.8,1.7,3.8,3.8s-1.7,3.8-3.8,3.8c0,0,0,0,0,0
		C34.2,47.3,32.5,45.6,32.5,43.5z"/>
	<path class="st1" d="M37.6,29.5c0-0.7-0.6-1.3-1.3-1.3c-8.5,0-15.3,6.9-15.3,15.3c0,0.7,0.6,1.3,1.3,1.3c0.7,0,1.3-0.6,1.3-1.3
		c0-7,5.7-12.7,12.8-12.8C37.1,30.7,37.6,30.2,37.6,29.5C37.6,29.5,37.6,29.5,37.6,29.5z"/>
</g>
</svg>
