<?xml version="1.0" encoding="utf-8"?>
<!-- Generator: Adobe Illustrator 24.3.0, SVG Export Plug-In . SVG Version: 6.00 Build 0)  -->
<svg version="1.1" id="Layer_1" xmlns="http://www.w3.org/2000/svg" xmlns:xlink="http://www.w3.org/1999/xlink" x="0px" y="0px"
	 viewBox="0 0 710 710" style="enable-background:new 0 0 710 710;" xml:space="preserve">
<style type="text/css">
	.st0{fill:none;stroke:#FFFFFF;stroke-width:10;}
	.st1{fill:#00FF66;}
	.st2{fill:#FF0000;}
</style>
<circle class="st0" cx="355" cy="355" r="350"/>
<path class="st1" d="M225.7,229.5l2.8-2.8c9.8-9.8,25.6-9.8,35.4,0l219.2,219.2c9.8,9.8,9.8,25.6,0,35.4l-2.8,2.8
	c-9.8,9.8-25.6,9.8-35.4,0L225.7,264.9C215.9,255.1,215.9,239.3,225.7,229.5z"/>
<path class="st2" d="M480.7,226.9l2.8,2.8c9.8,9.8,9.8,25.6,0,35.4L264.3,484.2c-9.8,9.8-25.6,9.8-35.4,0l-2.8-2.8
	c-9.8-9.8-9.8-25.6,0-35.4l219.2-219.2C455.1,217.1,470.9,217.1,480.7,226.9z"/>
</svg>
