<svg width="812" height="778" viewBox="0 0 812 778" fill="none" xmlns="http://www.w3.org/2000/svg">
<g clip-path="url(#clip0)">
<path d="M155 772.45C237.843 772.45 305 705.293 305 622.45C305 539.607 237.843 472.45 155 472.45C72.1573 472.45 5 539.607 5 622.45C5 705.293 72.1573 772.45 155 772.45Z" stroke="white" stroke-width="10" stroke-miterlimit="10"/>
<path d="M656.5 772.45C739.343 772.45 806.5 705.293 806.5 622.45C806.5 539.607 739.343 472.45 656.5 472.45C573.657 472.45 506.5 539.607 506.5 622.45C506.5 705.293 573.657 772.45 656.5 772.45Z" stroke="white" stroke-width="10" stroke-miterlimit="10"/>
<path d="M315.52 741.76C374.253 760.124 437.196 760.092 495.91 741.67" stroke="white" stroke-width="10" stroke-linecap="round" stroke-linejoin="round"/>
<path d="M217 221.65C185.642 246.92 159.698 278.25 140.716 313.769C121.734 349.287 110.104 388.267 106.52 428.38" stroke="white" stroke-width="10" stroke-linecap="round" stroke-linejoin="round"/>
<path d="M704.6 428.29C701.013 388.197 689.387 349.237 670.416 313.735C651.445 278.233 625.517 246.915 594.18 221.65" stroke="white" stroke-width="10" stroke-linecap="round" stroke-linejoin="round"/>
<path d="M405.57 305C488.413 305 555.57 237.843 555.57 155C555.57 72.1573 488.413 5 405.57 5C322.727 5 255.57 72.1573 255.57 155C255.57 237.843 322.727 305 405.57 305Z" stroke="white" stroke-width="10" stroke-miterlimit="10"/>
</g>
<defs>
<clipPath id="clip0">
<rect width="811.5" height="777.45" fill="white"/>
</clipPath>
</defs>
</svg>
