<?xml version="1.0" encoding="utf-8"?>
<!-- Generator: Adobe Illustrator 24.3.0, SVG Export Plug-In . SVG Version: 6.00 Build 0)  -->
<svg version="1.1" id="Layer_1" xmlns="http://www.w3.org/2000/svg" xmlns:xlink="http://www.w3.org/1999/xlink" x="0px" y="0px"
	 viewBox="0 0 24 24" style="enable-background:new 0 0 24 24;" xml:space="preserve">
<style type="text/css">
	.st0{fill:#66FFFF;}
	.st1{fill:#FFFF99;}
</style>
<path class="st0" d="M1.4,1.4L1.4,1.4c0.8-0.8,2-0.8,2.8,0l17.7,17.7c0.8,0.8,0.8,2,0,2.8l0,0c-0.8,0.8-2,0.8-2.8,0L1.4,4.2
	C0.6,3.5,0.6,2.2,1.4,1.4z"/>
<path class="st1" d="M21.9,1.4L21.9,1.4c0.8,0.8,0.8,2,0,2.8L4.2,21.9c-0.8,0.8-2,0.8-2.8,0l0,0c-0.8-0.8-0.8-2,0-2.8L19.1,1.4
	C19.9,0.6,21.1,0.6,21.9,1.4z"/>
</svg>
