<?xml version="1.0" encoding="utf-8"?>
<!-- Generator: Adobe Illustrator 24.3.0, SVG Export Plug-In . SVG Version: 6.00 Build 0)  -->
<svg version="1.1" id="Layer_1" xmlns="http://www.w3.org/2000/svg" xmlns:xlink="http://www.w3.org/1999/xlink" x="0px" y="0px"
	 viewBox="0 0 4 52" style="enable-background:new 0 0 4 52;" xml:space="preserve">
<style type="text/css">
	.st0{fill:#FFCCFF;}
	.st1{fill:#99FF99;}
</style>
<path class="st0" d="M2,0L2,0c1.1,0,2,0.9,2,2v28c0,1.1-0.9,2-2,2l0,0c-1.1,0-2-0.9-2-2V2C0,0.9,0.9,0,2,0z"/>
<path class="st1" d="M2,37L2,37c1.1,0,2,0.9,2,2v11c0,1.1-0.9,2-2,2l0,0c-1.1,0-2-0.9-2-2V39C0,37.9,0.9,37,2,37z"/>
</svg>
