<svg width="710" height="710" viewBox="0 0 710 710" fill="none" xmlns="http://www.w3.org/2000/svg">
<circle cx="355" cy="355" r="350" stroke="white" stroke-width="10"/>
<path d="M348.342 414.918C337.83 414.918 329.165 406.27 330.437 395.835C331.363 388.233 332.801 381.742 334.75 376.363C338.168 366.93 345.141 356.471 355.668 344.986L382.533 317.301C394.018 304.312 399.76 290.367 399.76 275.465C399.76 261.109 396 249.898 388.48 241.832C380.961 233.629 370.023 229.527 355.668 229.527C341.723 229.527 330.512 233.219 322.035 240.602C318.236 243.91 315.289 247.727 313.192 252.052C308.651 261.421 300.88 270.338 290.468 270.338V270.338C279.965 270.338 271.174 261.627 273.709 251.435C277.1 237.797 284.185 226.257 294.965 216.812C310.551 203.141 330.785 196.305 355.668 196.305C381.508 196.305 401.605 203.277 415.961 217.223C430.453 231.031 437.699 250.035 437.699 274.234C437.699 298.16 426.625 321.744 404.477 344.986L382.123 367.135C375.386 374.61 370.922 384.298 368.733 396.197C366.853 406.414 358.731 414.918 348.342 414.918V414.918ZM327.572 479.928C327.572 473.775 329.418 468.648 333.109 464.547C336.938 460.309 342.543 458.189 349.926 458.189C357.309 458.189 362.914 460.309 366.742 464.547C370.57 468.648 372.484 473.775 372.484 479.928C372.484 486.08 370.57 491.207 366.742 495.309C362.914 499.273 357.309 501.256 349.926 501.256C342.543 501.256 336.938 499.273 333.109 495.309C329.418 491.207 327.572 486.08 327.572 479.928Z" fill="white"/>
</svg>
