<?xml version="1.0" encoding="utf-8"?>
<!-- Generator: Adobe Illustrator 24.3.0, SVG Export Plug-In . SVG Version: 6.00 Build 0)  -->
<svg version="1.1" id="Layer_1" xmlns="http://www.w3.org/2000/svg" xmlns:xlink="http://www.w3.org/1999/xlink" x="0px" y="0px"
	 viewBox="0 0 710 710" style="enable-background:new 0 0 710 710;" xml:space="preserve">
<style type="text/css">
	.st0{fill:none;stroke:#00FFFF;stroke-width:15;}
	.st1{fill:#FF0000;}
</style>
<circle class="st0" cx="355" cy="355" r="350"/>
<path class="st1" d="M296,175h4c13.8,0,25,11.2,25,25v310c0,13.8-11.2,25-25,25h-4c-13.8,0-25-11.2-25-25V200
	C271,186.2,282.2,175,296,175z"/>
<path class="st1" d="M410,175h4c13.8,0,25,11.2,25,25v310c0,13.8-11.2,25-25,25h-4c-13.8,0-25-11.2-25-25V200
	C385,186.2,396.2,175,410,175z"/>
</svg>
